# xmcd
#
# Track frame offsets:
#	150
#	33665
#	65222
#	86685
#	111515
#	130452
#	146030
#	167355
#	190142
#	216942
#
# Disc length: 3227 seconds
#
# Revision: 4
# Processed by: cddbd v1.5.2PL0 Copyright (c) Steve Scherf et al.
# Submitted via: EZCDAudioConverter 8.0.2.1
#
DISCID=9d0c990a
DTITLE=Various Artist - Dù Tình Yêu Đã Mất
DYEAR=1991
DGENRE=Pop
TTITLE0=Ngọc Lan, Duy Quang - Cát bụi tình xa
TTITLE1=Kiều Nga - Cơn mưa phùn
TTITLE2=Vũ Khanh - Buồn vương màu áo
TTITLE3=Ngọc Hương - Bão tình
TTITLE4=Tuấn Anh - Mộ đời
TTITLE5=Ngọc Lan - Cơn gió thoảng
TTITLE6=Vũ Khanh - Dù Tình Yêu Đã Mất
TTITLE7=Kiều Nga - Tình yêu dấu chim
TTITLE8=Tuấn Anh - Bài tình ca cho em
TTITLE9=Ngọc Hương - Giáng ngọc
EXTD=
EXTT0=
EXTT1=
EXTT2=
EXTT3=
EXTT4=
EXTT5=
EXTT6=
EXTT7=
EXTT8=
EXTT9=
PLAYORDER=
